<?xml version="1.0" encoding="UTF-8" standalone="no" ?>
<!DOCTYPE svg PUBLIC "-//W3C//DTD SVG 1.1//EN" "http://www.w3.org/Graphics/SVG/1.1/DTD/svg11.dtd">
<svg xmlns="http://www.w3.org/2000/svg" xmlns:xlink="http://www.w3.org/1999/xlink" version="1.1" width="396" height="88" viewBox="0 0 396 88" xml:space="preserve">
<desc>Created with Fabric.js 3.6.6</desc>
<defs>
</defs>
<g transform="matrix(3.86 0 0 3.86 197.93 44.32)" id="SvgjsG1674"  >
<path style="stroke: none; stroke-width: 1; stroke-dasharray: none; stroke-linecap: butt; stroke-dashoffset: 0; stroke-linejoin: miter; stroke-miterlimit: 4; fill: rgb(52,144,222); fill-rule: nonzero; opacity: 1;"  transform=" translate(-52.3, -13.49)" d="M 2.44 5.59 q 0.02 -0.18 0.14 -0.31 t 0.34 -0.13 l 3.46 0 q 0.37 0 0.48 0.38 l 2.72 9.08 l 2.74 -9.08 q 0.14 -0.38 0.51 -0.38 l 3.42 0 q 0.18 0 0.325 0.125 t 0.165 0.315 q 0.35 3.52 0.715 6.985 t 0.715 6.985 l 0 0.05 q 0 0.39 -0.44 0.39 l -2.83 0 q -0.46 0 -0.48 -0.44 l -0.87 -7.73 l -2.25 7.78 q -0.02 0.1 -0.145 0.24 t -0.245 0.14 l -2.63 0 q -0.12 0 -0.255 -0.135 t -0.145 -0.245 l -2.25 -7.76 l -0.87 7.71 q -0.02 0.44 -0.49 0.44 l -2.83 0 q -0.43 0 -0.43 -0.44 z M 20.400000000000002 8.08 q 0 -0.32 0.18 -0.55 t 0.56 -0.23 l 2.29 0 q 0.12 0 0.26 0.055 t 0.26 0.16 t 0.205 0.245 t 0.085 0.32 l 0 11.15 q 0 0.38 -0.21 0.575 t -0.6 0.195 l -2.29 0 q -0.74 0 -0.74 -0.77 l 0 -11.15 z M 20.400000000000002 3.0199999999999996 q 0 -0.42 0.18 -0.595 t 0.56 -0.175 l 2.32 0 q 0.35 0 0.565 0.175 t 0.215 0.595 l 0 1.95 q 0 0.12 -0.055 0.26 t -0.155 0.27 t -0.245 0.215 t -0.325 0.085 l -2.32 0 q -0.74 0 -0.74 -0.83 l 0 -1.95 z M 35.84 19.56 q 0.11 -0.34 0.105 -0.775 t -0.005 -0.885 q -0.29 0.31 -0.59 0.655 t -0.665 0.64 t -0.825 0.485 t -1.07 0.19 q -1.35 0 -2.5 -0.46 t -1.99 -1.285 t -1.31 -1.975 t -0.47 -2.53 q 0 -1.37 0.47 -2.565 t 1.31 -2.08 t 1.99 -1.39 t 2.5 -0.505 q 0.62 0 1.115 0.19 t 0.9 0.49 t 0.74 0.675 t 0.635 0.745 l 0.38 -1.19 q 0.06 -0.17 0.11 -0.31 t 0.13 -0.235 t 0.205 -0.145 t 0.325 -0.05 l 1.49 0 q 0.11 0 0.255 0.03 t 0.255 0.14 q 0.14 0.11 0.21 0.24 t 0.07 0.33 l 0 10.18 q 0 1.56 -0.51 2.78 t -1.395 2.06 t -2.095 1.28 t -2.6 0.44 q -0.54 0 -1.16 -0.095 t -1.235 -0.285 t -1.19 -0.485 t -1.015 -0.685 q -0.12 -0.09 -0.21 -0.21 t -0.125 -0.27 t 0 -0.325 t 0.165 -0.365 l 0.95 -1.31 q 0.26 -0.28 0.49 -0.3 t 0.58 0.24 q 0.25 0.24 0.575 0.385 t 0.67 0.23 t 0.68 0.11 t 0.605 0.025 q 0.45 0 0.94 -0.12 t 0.915 -0.355 t 0.75 -0.575 t 0.445 -0.78 z M 30.12 13.620000000000001 q 0 0.67 0.205 1.245 t 0.585 0.995 t 0.915 0.66 t 1.185 0.24 q 0.64 0 1.205 -0.225 t 0.985 -0.625 t 0.675 -0.94 t 0.285 -1.17 l 0 -0.33 q -0.03 -0.61 -0.285 -1.155 t -0.675 -0.96 t -0.985 -0.66 t -1.205 -0.245 q -0.65 0 -1.185 0.255 t -0.915 0.685 t -0.585 1.01 t -0.205 1.22 z M 41.620000000000005 13.66 q 0 -0.92 0.235 -1.77 t 0.66 -1.575 t 1.02 -1.32 t 1.325 -1.015 t 1.575 -0.65 t 1.765 -0.23 q 1.36 0 2.555 0.505 t 2.08 1.39 t 1.4 2.08 t 0.515 2.585 q 0 0.92 -0.235 1.765 t -0.66 1.575 t -1.02 1.325 t -1.325 1.02 t -1.565 0.655 t -1.745 0.23 q -0.92 0 -1.765 -0.23 t -1.575 -0.655 t -1.325 -1.02 t -1.02 -1.325 t -0.66 -1.575 t -0.235 -1.765 z M 45.27 13.66 q 0 0.66 0.205 1.235 t 0.58 0.995 t 0.91 0.665 t 1.205 0.245 q 0.65 0 1.175 -0.245 t 0.89 -0.665 t 0.56 -0.995 t 0.195 -1.235 q 0 -0.64 -0.195 -1.22 t -0.56 -1.02 t -0.89 -0.695 t -1.175 -0.255 q -0.67 0 -1.205 0.255 t -0.91 0.695 t -0.58 1.02 t -0.205 1.22 z M 58.64000000000001 16.05 q 0.27 0.27 0.585 0.455 t 0.605 0.3 t 0.51 0.165 t 0.3 0.05 q 0.19 0 0.485 -0.015 t 0.565 -0.09 t 0.465 -0.245 t 0.195 -0.48 q 0 -0.28 -0.11 -0.445 t -0.32 -0.28 t -0.515 -0.205 t -0.685 -0.21 q -1.2 -0.32 -1.98 -0.77 t -1.235 -1.005 t -0.635 -1.195 t -0.18 -1.35 q 0 -0.83 0.33 -1.51 t 0.94 -1.165 t 1.46 -0.75 t 1.89 -0.265 q 0.63 0 1.18 0.105 t 1.05 0.33 t 0.975 0.58 t 0.945 0.845 q 0.17 0.2 0.175 0.375 t -0.225 0.375 q -0.39 0.32 -0.745 0.63 t -0.735 0.69 q -0.12 0.1 -0.24 0.125 t -0.23 -0.005 t -0.21 -0.1 t -0.18 -0.17 q -0.35 -0.39 -0.8 -0.525 t -0.84 -0.135 q -0.49 0 -0.78 0.17 t -0.27 0.52 q 0.02 0.26 0.195 0.405 t 0.43 0.235 t 0.54 0.145 t 0.525 0.125 q 0.9 0.29 1.65 0.63 t 1.3 0.835 t 0.855 1.185 t 0.305 1.68 t -0.395 1.77 t -1.085 1.31 t -1.635 0.81 t -2.035 0.28 q -0.62 0 -1.26 -0.11 t -1.24 -0.355 t -1.14 -0.63 t -0.96 -0.935 q -0.11 -0.14 -0.165 -0.295 t -0.05 -0.305 t 0.06 -0.275 t 0.175 -0.215 l 1.29 -1.29 q 0.24 -0.2 0.425 -0.14 t 0.475 0.34 z M 68.72 5.609999999999999 q 0 -0.21 0.115 -0.335 t 0.325 -0.125 l 6.64 0 q 0.88 0 1.66 0.335 t 1.365 0.92 t 0.925 1.37 t 0.34 1.685 q 0 0.75 -0.235 1.395 t -0.665 1.155 q 0.72 0.66 1.14 1.57 t 0.42 1.93 q 0 0.91 -0.35 1.725 t -0.945 1.43 t -1.39 0.975 t -1.675 0.36 l -7.23 0 q -0.2 0 -0.32 -0.105 t -0.12 -0.325 l 0 -13.96 z M 76.78 15.36 q 0 -0.3 -0.115 -0.6 t -0.32 -0.535 t -0.49 -0.385 t -0.615 -0.15 l -2.64 0 l 0 3.34 l 2.64 0 q 0.33 0 0.61 -0.14 t 0.49 -0.375 t 0.325 -0.535 t 0.115 -0.62 z M 76.25 9.55 q 0 -0.3 -0.11 -0.56 t -0.31 -0.46 t -0.48 -0.315 t -0.61 -0.115 l -2.14 0 l 0 2.9 l 2.11 0 q 0.34 0 0.625 -0.105 t 0.485 -0.3 t 0.315 -0.46 t 0.115 -0.585 z M 93.06 18.48 q -0.88 0.81 -1.98 1.265 t -2.33 0.455 q -1.37 0 -2.59 -0.5 t -2.14 -1.385 t -1.46 -2.085 t -0.54 -2.61 q 0 -0.88 0.215 -1.705 t 0.61 -1.545 t 0.96 -1.325 t 1.265 -1.035 t 1.52 -0.67 t 1.73 -0.24 q 0.83 0 1.61 0.22 t 1.465 0.62 t 1.255 0.96 t 0.98 1.225 t 0.635 1.42 t 0.225 1.555 q 0 0.52 -0.015 0.85 t -0.155 0.525 t -0.465 0.27 t -0.955 0.075 l -7.2 0 q 0.1 0.64 0.405 1.07 t 0.705 0.685 t 0.85 0.365 t 0.85 0.11 q 0.36 0 0.74 -0.075 t 0.735 -0.2 t 0.65 -0.29 t 0.475 -0.345 q 0.16 -0.13 0.275 -0.195 t 0.245 -0.065 t 0.265 0.09 t 0.305 0.26 l 1.06 1.2 q 0.11 0.13 0.14 0.235 t 0.03 0.215 q 0 0.2 -0.11 0.345 t -0.26 0.255 z M 88.25 10.15 q -0.39 0 -0.755 0.155 t -0.685 0.415 t -0.575 0.59 t -0.415 0.67 l 5.11 0 q -0.21 -0.39 -0.455 -0.72 t -0.56 -0.58 t -0.72 -0.39 t -0.945 -0.14 z M 97.35 5.32 q 0 -0.31 0.205 -0.465 t 0.585 -0.295 l 2.27 -0.79 q 0.05 -0.01 0.095 -0.01 l 0.085 0 q 0.37 0 0.495 0.215 t 0.125 0.565 l -0.01 3.15 l 1.67 0 q 0.32 0 0.52 0.19 t 0.2 0.57 l 0 1.93 q 0 0.42 -0.2 0.615 t -0.52 0.195 l -1.67 0 l 0.01 8.04 q 0 0.38 -0.22 0.575 t -0.61 0.195 l -2.26 0 q -0.77 0 -0.77 -0.77 l -0.01 -8.04 l -0.73 0 q -0.77 0 -0.77 -0.81 l 0 -1.93 q 0 -0.76 0.77 -0.76 l 0.73 0 z" stroke-linecap="round" />
</g>
</svg>