<svg xmlns:xlink="http://www.w3.org/1999/xlink" xmlns="http://www.w3.org/2000/svg" width="396" height="227.07899599254327" viewBox="0 0 350 200.70113282169228" class="looka-1j8o68f"><defs id="SvgjsDefs1672"></defs><g id="SvgjsG1673" featurekey="e7LhAk-0" transform="matrix(1.55553050140421,0,0,1.55553050140421,97.22438652178963,-33.26198494999013)" fill="#3490DE"><g xmlns="http://www.w3.org/2000/svg" fill="#3490DE"><path d="M53.37,42.392c-0.102,0-0.204-0.003-0.308-0.009c-3.557-0.206-6.245-3.947-5.991-8.34c0.252-4.39,3.325-7.79,6.907-7.596   c3.557,0.204,6.245,3.944,5.993,8.338C59.725,39.05,56.825,42.392,53.37,42.392z M53.671,29.175c-1.973,0-3.708,2.255-3.868,5.026   c-0.164,2.838,1.402,5.334,3.418,5.45l0.149,0.003c1.974,0,3.71-2.255,3.869-5.026c0.163-2.837-1.403-5.333-3.417-5.449   L53.671,29.175z" fill="#3490DE"></path></g><g xmlns="http://www.w3.org/2000/svg" fill="#3490DE"><path d="M13.25,44.217c-3.683,0-6.796-3.207-7.241-7.461c-0.223-2.134,0.267-4.225,1.38-5.888c1.167-1.741,2.87-2.811,4.794-3.013   c3.946-0.416,7.415,2.928,7.885,7.428c0.224,2.134-0.266,4.226-1.381,5.888c-1.166,1.741-2.869,2.81-4.793,3.012   C13.678,44.206,13.463,44.217,13.25,44.217z M12.829,30.558c-0.119,0-0.239,0.007-0.359,0.019   c-1.104,0.116-2.101,0.761-2.805,1.813c-0.76,1.132-1.09,2.582-0.933,4.081c0.31,2.958,2.491,5.238,4.88,4.991   c1.103-0.116,2.1-0.76,2.805-1.814c0.759-1.132,1.09-2.581,0.933-4.08C17.053,32.759,15.069,30.558,12.829,30.558z" fill="#3490DE"></path></g><g xmlns="http://www.w3.org/2000/svg" fill="#3490DE"><path d="M87.261,49.922c-0.598,0-1.189-0.086-1.762-0.255c-1.855-0.55-3.334-1.914-4.162-3.837   c-0.793-1.838-0.892-3.985-0.281-6.042c1.068-3.601,4.09-6.117,7.35-6.117c0.597,0,1.189,0.086,1.761,0.257   c3.735,1.108,5.729,5.54,4.442,9.879C93.541,47.408,90.52,49.922,87.261,49.922z M88.405,36.408c-2.025,0-4.013,1.749-4.727,4.157   c-0.43,1.445-0.368,2.931,0.17,4.182c0.503,1.166,1.364,1.981,2.428,2.296c0.318,0.095,0.648,0.142,0.982,0.142   c2.025,0,4.012-1.748,4.727-4.157c0.858-2.892-0.308-5.797-2.598-6.477C89.07,36.456,88.738,36.408,88.405,36.408z" fill="#3490DE"></path></g><path xmlns="http://www.w3.org/2000/svg" d="M93.068,56.892c-1.975-3.767-10.33-7.632-14.507-7.418c-3.019,0.158-10.136,3.992-11.657,6.703  c-0.251,0.446-0.491,1.063-0.703,1.789c-0.438-0.063-0.897-0.11-1.344-0.168c-0.116-2.423-0.049-5.693,0.472-6.667  c0.16-0.299,0.525-0.898,0.998-1.678c2.268-3.733,4.524-7.561,5.061-9.727c0.896-3.623-1.116-12.1-4.186-15.205  c-1.407-1.424-2.74-1.48-3.608-1.272c-3.265,0.767-2.385,5.276-1.61,9.254c0.372,1.904,0.793,4.065,0.585,5.038  c-0.292,1.372-2.606,4.839-3.871,5.798c-1.645,1.25-6.398,1.547-8.877,0.865c-1.897-0.523-4.831-4.861-5.24-7.192  c-0.2-1.138,0.451-3.517,1.025-5.616c1.115-4.082,2.381-8.71-0.949-9.85c-0.786-0.27-2.012-0.337-3.394,0.871  c-3.405,2.976-6.223,12.991-5.42,17.034c0.399,2.021,1.833,4.405,3.218,6.71c0.991,1.648,2.014,3.352,2.429,4.591  c0.329,0.982,0.54,4.512,0.606,6.724c-5.645,0.548-10.785,1.551-15.15,2.91c0.005-0.168-0.016-0.338-0.076-0.506l-1.076-3.027  c1.611,0.724,3.533,1.12,5.27,0.242c2.747-1.392,6.993-7.828,6.189-11.225c-0.354-1.496-1.545-2.358-3.268-2.365  c-0.004,0-0.009,0-0.013,0c-2.152,0-3.354,2.29-4.416,4.31c-0.329,0.625-0.802,1.523-1.116,1.9  c-0.741-0.308-2.067-1.464-2.979-2.259c-1.317-1.149-2.562-2.236-3.739-2.711c-3.365-1.356-9.399,0-12.155,2.029  c-3.345,2.467-5.251,9.05-4.342,14.992c0.474,3.099,4.471,5.453,8.358,6.517c-0.994,1.385-1.534,2.849-1.534,4.372  c0,8.781,17.584,15.656,40.03,15.656c22.447,0,40.03-6.875,40.03-15.655c0-0.688-0.119-1.36-0.328-2.021  C93.888,67.087,94.67,59.95,93.068,56.892z M21.369,62.51c-1.501-0.838-3.663-1.503-5.899-2.185  c-0.924-0.283-2.043-0.624-2.521-0.823c-0.105-0.664,0.063-2.383,0.399-3.998c0.015-0.073,0.029-0.146,0.044-0.218  c0.162-0.737-0.306-1.467-1.042-1.629c-0.742-0.164-1.468,0.305-1.63,1.043c-1.247,5.685,0.009,6.612,0.422,6.917  c0.543,0.402,1.529,0.714,3.531,1.323c0.869,0.266,2.354,0.719,3.644,1.199c0.568,0.211,1.097,0.427,1.519,0.633  c0.314,0.154,0.571,0.304,0.737,0.442c-0.425,0.872-2.088,0.976-2.846,0.958c-0.031,0-0.061-0.004-0.093-0.004  c-0.614-0.009-1.25-0.077-1.891-0.188c-3.69-0.634-7.529-2.784-7.812-4.631C7.2,56.577,8.723,50.796,11.19,48.977  c2.075-1.527,7.152-2.644,9.508-1.695c0.749,0.302,1.926,1.33,2.964,2.235c1.642,1.433,3.193,2.786,4.664,2.981  c1.736,0.237,2.667-1.538,3.653-3.412c0.409-0.778,1.495-2.846,1.994-2.846c0,0,0,0,0,0c0.556,0.002,0.586,0.132,0.617,0.258  c0.439,1.855-2.911,7.216-4.763,8.154c-1.753,0.891-4.824-1.324-5.759-2.167c-0.463-0.422-1.155-0.473-1.676-0.125  c-0.522,0.347-0.74,1.005-0.531,1.597l2.031,5.714l0.399,1.127c0.056,0.154,0.138,0.288,0.236,0.406  C23.411,61.617,22.356,62.051,21.369,62.51z M40.549,76.607h-4.105v-4.029h4.105V76.607z M45.95,69.835h-4.104v-4.027h4.104V69.835z   M44.825,57.247c-0.051-1.618-0.229-5.833-0.742-7.363c-0.509-1.523-1.562-3.277-2.678-5.132c-1.265-2.104-2.573-4.28-2.88-5.833  c-0.625-3.154,1.938-12.169,4.537-14.44c0.114-0.098,0.505-0.411,0.708-0.343c0.9,0.308-0.294,4.676-0.805,6.542  c-0.713,2.606-1.385,5.07-1.081,6.81c0.538,3.059,3.981,8.469,7.21,9.357c2.849,0.783,8.651,0.656,11.259-1.323  c1.632-1.239,4.439-5.279,4.894-7.407c0.322-1.519-0.114-3.76-0.577-6.131c-0.348-1.786-1.072-5.5-0.448-6.067  c0.34-0.082,0.751,0.244,1.034,0.532c2.33,2.357,4.162,9.856,3.477,12.624c-0.481,1.942-3.36,6.685-4.744,8.963  c-0.51,0.84-0.901,1.488-1.072,1.81c-0.903,1.691-0.896,5.526-0.812,7.642c-3.196-0.313-6.545-0.487-10.022-0.487  C49.596,56.997,47.174,57.085,44.825,57.247z M60.672,73.3h-4.105v-4.029h4.105V73.3z M90.14,67.713  c-0.185,0.516-0.39,0.978-0.612,1.373c-0.164,0.29-0.335,0.554-0.516,0.756c-0.111,0.125-0.236,0.255-0.373,0.391  c-2.029,1.986-6.721,4.893-9.279,4.506c-0.671-0.102-1.111-0.425-1.415-1.037c0.407-0.656,2.797-1.785,4.104-2.403  c2.017-0.955,3.927-1.86,4.932-3.022c0.126-0.146,0.241-0.293,0.338-0.448c0.132-0.213,0.258-0.465,0.377-0.741  c0.17-0.396,0.325-0.846,0.464-1.324c0.515-1.771,0.809-3.908,0.809-4.965c0-0.756-0.612-1.368-1.368-1.368  c-0.71,0-1.286,0.542-1.354,1.233c-0.004,0.044-0.015,0.089-0.015,0.134c0,0.812-0.194,2.116-0.468,3.293  c-2.456-1.494-5.549-2.808-9.142-3.884l0.314-0.471l1.419-2.13c0.319-0.479,0.305-1.108-0.038-1.573  c-0.343-0.463-0.94-0.662-1.492-0.495c-1.312,0.394-3.735,1.33-5.232,3.188c-0.044,0.055-0.076,0.118-0.114,0.174  c-0.255,0.37-0.433,0.8-0.544,1.283c-0.095,0.411-0.146,0.858-0.176,1.325c-0.038,0.595-0.042,1.222-0.042,1.865  c-0.003,3.161-0.253,4.084-1.106,4.117c-0.224,0.009-0.465-0.021-0.748-0.485c-0.747-1.222-0.813-3.737-0.523-5.954  c0.06-0.458,0.135-0.901,0.223-1.319c0.103-0.485,0.22-0.938,0.352-1.327c0.116-0.348,0.244-0.648,0.377-0.887  c0.991-1.761,7.061-5.186,9.415-5.308c3.182-0.182,10.49,3.191,11.941,5.957C91.606,59.998,91.223,64.695,90.14,67.713z" fill="#3490DE"></path></g><g id="SvgjsG1674" featurekey="Qg0WB5-0" transform="matrix(3.4119715911001,0,0,3.4119715911001,-3.4460961553365164,116.32306392002478)" fill="#3490DE"><path d="M2.44 5.59 q0.02 -0.18 0.14 -0.31 t0.34 -0.13 l3.46 0 q0.37 0 0.48 0.38 l2.72 9.08 l2.74 -9.08 q0.14 -0.38 0.51 -0.38 l3.42 0 q0.18 0 0.325 0.125 t0.165 0.315 q0.35 3.52 0.715 6.985 t0.715 6.985 l0 0.05 q0 0.39 -0.44 0.39 l-2.83 0 q-0.46 0 -0.48 -0.44 l-0.87 -7.73 l-2.25 7.78 q-0.02 0.1 -0.145 0.24 t-0.245 0.14 l-2.63 0 q-0.12 0 -0.255 -0.135 t-0.145 -0.245 l-2.25 -7.76 l-0.87 7.71 q-0.02 0.44 -0.49 0.44 l-2.83 0 q-0.43 0 -0.43 -0.44 z M20.400000000000002 8.08 q0 -0.32 0.18 -0.55 t0.56 -0.23 l2.29 0 q0.12 0 0.26 0.055 t0.26 0.16 t0.205 0.245 t0.085 0.32 l0 11.15 q0 0.38 -0.21 0.575 t-0.6 0.195 l-2.29 0 q-0.74 0 -0.74 -0.77 l0 -11.15 z M20.400000000000002 3.0199999999999996 q0 -0.42 0.18 -0.595 t0.56 -0.175 l2.32 0 q0.35 0 0.565 0.175 t0.215 0.595 l0 1.95 q0 0.12 -0.055 0.26 t-0.155 0.27 t-0.245 0.215 t-0.325 0.085 l-2.32 0 q-0.74 0 -0.74 -0.83 l0 -1.95 z M35.84 19.56 q0.11 -0.34 0.105 -0.775 t-0.005 -0.885 q-0.29 0.31 -0.59 0.655 t-0.665 0.64 t-0.825 0.485 t-1.07 0.19 q-1.35 0 -2.5 -0.46 t-1.99 -1.285 t-1.31 -1.975 t-0.47 -2.53 q0 -1.37 0.47 -2.565 t1.31 -2.08 t1.99 -1.39 t2.5 -0.505 q0.62 0 1.115 0.19 t0.9 0.49 t0.74 0.675 t0.635 0.745 l0.38 -1.19 q0.06 -0.17 0.11 -0.31 t0.13 -0.235 t0.205 -0.145 t0.325 -0.05 l1.49 0 q0.11 0 0.255 0.03 t0.255 0.14 q0.14 0.11 0.21 0.24 t0.07 0.33 l0 10.18 q0 1.56 -0.51 2.78 t-1.395 2.06 t-2.095 1.28 t-2.6 0.44 q-0.54 0 -1.16 -0.095 t-1.235 -0.285 t-1.19 -0.485 t-1.015 -0.685 q-0.12 -0.09 -0.21 -0.21 t-0.125 -0.27 t0 -0.325 t0.165 -0.365 l0.95 -1.31 q0.26 -0.28 0.49 -0.3 t0.58 0.24 q0.25 0.24 0.575 0.385 t0.67 0.23 t0.68 0.11 t0.605 0.025 q0.45 0 0.94 -0.12 t0.915 -0.355 t0.75 -0.575 t0.445 -0.78 z M30.12 13.620000000000001 q0 0.67 0.205 1.245 t0.585 0.995 t0.915 0.66 t1.185 0.24 q0.64 0 1.205 -0.225 t0.985 -0.625 t0.675 -0.94 t0.285 -1.17 l0 -0.33 q-0.03 -0.61 -0.285 -1.155 t-0.675 -0.96 t-0.985 -0.66 t-1.205 -0.245 q-0.65 0 -1.185 0.255 t-0.915 0.685 t-0.585 1.01 t-0.205 1.22 z M41.620000000000005 13.66 q0 -0.92 0.235 -1.77 t0.66 -1.575 t1.02 -1.32 t1.325 -1.015 t1.575 -0.65 t1.765 -0.23 q1.36 0 2.555 0.505 t2.08 1.39 t1.4 2.08 t0.515 2.585 q0 0.92 -0.235 1.765 t-0.66 1.575 t-1.02 1.325 t-1.325 1.02 t-1.565 0.655 t-1.745 0.23 q-0.92 0 -1.765 -0.23 t-1.575 -0.655 t-1.325 -1.02 t-1.02 -1.325 t-0.66 -1.575 t-0.235 -1.765 z M45.27 13.66 q0 0.66 0.205 1.235 t0.58 0.995 t0.91 0.665 t1.205 0.245 q0.65 0 1.175 -0.245 t0.89 -0.665 t0.56 -0.995 t0.195 -1.235 q0 -0.64 -0.195 -1.22 t-0.56 -1.02 t-0.89 -0.695 t-1.175 -0.255 q-0.67 0 -1.205 0.255 t-0.91 0.695 t-0.58 1.02 t-0.205 1.22 z M58.64000000000001 16.05 q0.27 0.27 0.585 0.455 t0.605 0.3 t0.51 0.165 t0.3 0.05 q0.19 0 0.485 -0.015 t0.565 -0.09 t0.465 -0.245 t0.195 -0.48 q0 -0.28 -0.11 -0.445 t-0.32 -0.28 t-0.515 -0.205 t-0.685 -0.21 q-1.2 -0.32 -1.98 -0.77 t-1.235 -1.005 t-0.635 -1.195 t-0.18 -1.35 q0 -0.83 0.33 -1.51 t0.94 -1.165 t1.46 -0.75 t1.89 -0.265 q0.63 0 1.18 0.105 t1.05 0.33 t0.975 0.58 t0.945 0.845 q0.17 0.2 0.175 0.375 t-0.225 0.375 q-0.39 0.32 -0.745 0.63 t-0.735 0.69 q-0.12 0.1 -0.24 0.125 t-0.23 -0.005 t-0.21 -0.1 t-0.18 -0.17 q-0.35 -0.39 -0.8 -0.525 t-0.84 -0.135 q-0.49 0 -0.78 0.17 t-0.27 0.52 q0.02 0.26 0.195 0.405 t0.43 0.235 t0.54 0.145 t0.525 0.125 q0.9 0.29 1.65 0.63 t1.3 0.835 t0.855 1.185 t0.305 1.68 t-0.395 1.77 t-1.085 1.31 t-1.635 0.81 t-2.035 0.28 q-0.62 0 -1.26 -0.11 t-1.24 -0.355 t-1.14 -0.63 t-0.96 -0.935 q-0.11 -0.14 -0.165 -0.295 t-0.05 -0.305 t0.06 -0.275 t0.175 -0.215 l1.29 -1.29 q0.24 -0.2 0.425 -0.14 t0.475 0.34 z M68.72 5.609999999999999 q0 -0.21 0.115 -0.335 t0.325 -0.125 l6.64 0 q0.88 0 1.66 0.335 t1.365 0.92 t0.925 1.37 t0.34 1.685 q0 0.75 -0.235 1.395 t-0.665 1.155 q0.72 0.66 1.14 1.57 t0.42 1.93 q0 0.91 -0.35 1.725 t-0.945 1.43 t-1.39 0.975 t-1.675 0.36 l-7.23 0 q-0.2 0 -0.32 -0.105 t-0.12 -0.325 l0 -13.96 z M76.78 15.36 q0 -0.3 -0.115 -0.6 t-0.32 -0.535 t-0.49 -0.385 t-0.615 -0.15 l-2.64 0 l0 3.34 l2.64 0 q0.33 0 0.61 -0.14 t0.49 -0.375 t0.325 -0.535 t0.115 -0.62 z M76.25 9.55 q0 -0.3 -0.11 -0.56 t-0.31 -0.46 t-0.48 -0.315 t-0.61 -0.115 l-2.14 0 l0 2.9 l2.11 0 q0.34 0 0.625 -0.105 t0.485 -0.3 t0.315 -0.46 t0.115 -0.585 z M93.06 18.48 q-0.88 0.81 -1.98 1.265 t-2.33 0.455 q-1.37 0 -2.59 -0.5 t-2.14 -1.385 t-1.46 -2.085 t-0.54 -2.61 q0 -0.88 0.215 -1.705 t0.61 -1.545 t0.96 -1.325 t1.265 -1.035 t1.52 -0.67 t1.73 -0.24 q0.83 0 1.61 0.22 t1.465 0.62 t1.255 0.96 t0.98 1.225 t0.635 1.42 t0.225 1.555 q0 0.52 -0.015 0.85 t-0.155 0.525 t-0.465 0.27 t-0.955 0.075 l-7.2 0 q0.1 0.64 0.405 1.07 t0.705 0.685 t0.85 0.365 t0.85 0.11 q0.36 0 0.74 -0.075 t0.735 -0.2 t0.65 -0.29 t0.475 -0.345 q0.16 -0.13 0.275 -0.195 t0.245 -0.065 t0.265 0.09 t0.305 0.26 l1.06 1.2 q0.11 0.13 0.14 0.235 t0.03 0.215 q0 0.2 -0.11 0.345 t-0.26 0.255 z M88.25 10.15 q-0.39 0 -0.755 0.155 t-0.685 0.415 t-0.575 0.59 t-0.415 0.67 l5.11 0 q-0.21 -0.39 -0.455 -0.72 t-0.56 -0.58 t-0.72 -0.39 t-0.945 -0.14 z M97.35 5.32 q0 -0.31 0.205 -0.465 t0.585 -0.295 l2.27 -0.79 q0.05 -0.01 0.095 -0.01 l0.085 0 q0.37 0 0.495 0.215 t0.125 0.565 l-0.01 3.15 l1.67 0 q0.32 0 0.52 0.19 t0.2 0.57 l0 1.93 q0 0.42 -0.2 0.615 t-0.52 0.195 l-1.67 0 l0.01 8.04 q0 0.38 -0.22 0.575 t-0.61 0.195 l-2.26 0 q-0.77 0 -0.77 -0.77 l-0.01 -8.04 l-0.73 0 q-0.77 0 -0.77 -0.81 l0 -1.93 q0 -0.76 0.77 -0.76 l0.73 0 z" fill="#3490DE"></path></g></svg>